<?xml version="1.0" encoding="utf-8"?>
<!-- Generator: Adobe Illustrator 25.2.1, SVG Export Plug-In . SVG Version: 6.00 Build 0)  -->
<svg version="1.1" id="Layer_1" xmlns="http://www.w3.org/2000/svg" xmlns:xlink="http://www.w3.org/1999/xlink" x="0px" y="0px"
	 viewBox="0 0 500 500" style="enable-background:new 0 0 500 500;" xml:space="preserve">
<style type="text/css">
	.st0{fill:#FFFFFF;}
</style>
<g>
	<g>
		<path d="M429.8,88.2L300.2,13.4c-31-17.9-69.5-17.9-100.4,0L70.2,88.2c-31,17.9-50.2,51.2-50.2,87v149.6c0,35.8,19.2,69.1,50.2,87
			l129.6,74.8c15.5,8.9,32.9,13.4,50.2,13.4c17.4,0,34.7-4.5,50.2-13.4l129.6-74.8c31-17.9,50.2-51.2,50.2-87V175.2
			C480,139.4,460.8,106.1,429.8,88.2z"/>
		<g>
			<g>
				<path class="st0" d="M148,361.5L148,361.5c-6.7-10.3-3.7-24,6.6-30.7l57.5-37.2c15.3-9.9,34-13.7,51.8-9.7
					c17.1,3.8,31.7,14,41.2,28.7l0.6,0.9c1.6,2.4,0.9,5.7-1.6,7.3l-28.4,18.4c-2.4,1.6-5.7,0.9-7.3-1.6l-0.3-0.4
					c-3-4.7-7.6-8.3-13-9.8c-6.2-1.7-12.6-0.7-17.9,2.8l-58.4,37.9C168.5,374.8,154.7,371.8,148,361.5z"/>
				<path class="st0" d="M250.9,409.4c-5,0-10-0.6-14.9-1.7c-17.2-3.9-32-14.8-41.6-29.6v0c-1.6-2.4-0.9-5.7,1.6-7.3l28.4-18.4
					c2.4-1.6,5.7-0.9,7.3,1.6l0.2,0.4c3,4.7,7.6,8.3,13,9.8c6.2,1.7,12.6,0.7,17.9-2.8l58.4-37.9c10.3-6.7,24-3.7,30.7,6.6v0
					c6.7,10.3,3.7,24-6.6,30.7L287,398.6C276.1,405.7,263.6,409.4,250.9,409.4z"/>
			</g>
			<g>
				<g>
					<path class="st0" d="M80.7,229.6h-2.9v14.3c0,2.3-1.9,4.2-4.2,4.2h-9.8c-2.3,0-4.2-1.9-4.2-4.2v-53.2c0-2.3,1.9-4.2,4.2-4.2H81
						c15.9,0,25.6,6.9,25.6,21.1C106.6,222.1,96.2,229.6,80.7,229.6z M79.9,199.8h-2.2v16.5h2.1c6.1,0,9.4-2.7,9.4-8.5
						C89.1,202.5,86,199.8,79.9,199.8z"/>
					<path class="st0" d="M126.8,186.3h14.5c1.8,0,3.4,1.1,4,2.8l17.8,52.1c0.8,2.5-0.7,5.1-3.3,5.5l-10,1.5c-2,0.3-4-0.9-4.6-2.8
						l-1.5-4.7c-0.6-1.7-2.2-2.9-4-2.9h-13.2c-1.9,0-3.5,1.2-4,3l-1.3,4.3c-0.5,1.8-2.2,3-4,3h-8.7c-2.9,0-4.9-2.8-4-5.5l18.4-53.5
						C123.4,187.4,125,186.3,126.8,186.3z M127.2,223.9h11.3l-5.5-19.4L127.2,223.9z"/>
					<path class="st0" d="M205,248.3c-1.7,0.3-3.4-0.6-4.3-2l-9.9-17.2h-2.8v14.9c0,2.3-1.9,4.2-4.2,4.2h-9.8
						c-2.3,0-4.2-1.9-4.2-4.2v-53.2c0-2.3,1.9-4.2,4.2-4.2h19.4c15.9,0,25,7,25,20.3c0,6.9-2.6,12.2-7.5,15.8
						c-1.7,1.3-2,3.7-0.9,5.5l7.9,12.3c1.6,2.5,0.1,5.9-2.9,6.4L205,248.3z M191.6,199.8h-3.7v16.5h3.7c5.9,0,9.1-3,9.1-8.5
						C200.8,202.7,197.5,199.8,191.6,199.8z"/>
					<path class="st0" d="M256.9,205.9v38c0,2.3-1.9,4.2-4.2,4.2h-9.9c-2.3,0-4.2-1.9-4.2-4.2v-38c0-2.3-1.9-4.2-4.2-4.2h-8.1
						c-2.3,0-4.2-1.9-4.2-4.2v-6.8c0-2.3,1.9-4.2,4.2-4.2h41.8c2,0,3.8,1.5,4.1,3.5l1.1,6.8c0.4,2.5-1.5,4.9-4.1,4.9h-8.1
						C258.8,201.7,256.9,203.6,256.9,205.9z"/>
					<path class="st0" d="M315.6,246.1l-11.2-17.9c-2.2-3.6-7.7-2-7.7,2.2v13.4c0,2.3-1.9,4.2-4.2,4.2h-8.6c-2.3,0-4.2-1.9-4.2-4.2
						v-53.2c0-2.3,1.9-4.2,4.2-4.2h11.5c1.4,0,2.8,0.7,3.5,2l9.4,15.1c2.2,3.6,7.7,2,7.7-2.2v-10.7c0-2.3,1.9-4.2,4.2-4.2h8.6
						c2.3,0,4.2,1.9,4.2,4.2v53.2c0,2.3-1.9,4.2-4.2,4.2h-9.7C317.7,248.1,316.4,247.4,315.6,246.1z"/>
					<path class="st0" d="M342.7,243.9v-53.2c0-2.3,1.9-4.2,4.2-4.2h32.2c2.3,0,4.2,1.9,4.2,4.2v6c0,2.3-1.9,4.2-4.2,4.2h-18.6v8.8
						h13.6c2.1,0,3.8,1.5,4.1,3.5l0.9,5.8c0.4,2.5-1.6,4.8-4.1,4.8h-14.6v9.8h19.4c2.3,0,4.2,1.9,4.2,4.2v6c0,2.3-1.9,4.2-4.2,4.2
						h-33C344.6,248.1,342.7,246.2,342.7,243.9z"/>
					<path class="st0" d="M426.7,248.3c-1.7,0.3-3.4-0.6-4.3-2l-9.9-17.2h-2.8v14.9c0,2.3-1.9,4.2-4.2,4.2h-9.8
						c-2.3,0-4.2-1.9-4.2-4.2v-53.2c0-2.3,1.9-4.2,4.2-4.2h19.4c15.9,0,25,7,25,20.3c0,6.9-2.6,12.2-7.5,15.8
						c-1.7,1.3-2,3.7-0.9,5.5l7.9,12.3c1.6,2.5,0.1,5.9-2.9,6.4L426.7,248.3z M413.3,199.8h-3.7v16.5h3.7c5.9,0,9.1-3,9.1-8.5
						C422.5,202.7,419.2,199.8,413.3,199.8z"/>
				</g>
			</g>
		</g>
	</g>
	<g id="Discord_Logo_-_Large_-_White_19_">
		<path class="st0" d="M207,130.8h13.3c3.2,0,5.9,0.5,8.1,1.5c2,0.9,3.8,2.3,5,4.2c1.1,1.8,1.7,4,1.7,6.1c0,2.2-0.6,4.3-1.7,6.1
			c-1.3,1.9-3.1,3.5-5.3,4.4c-2.4,1.1-5.3,1.6-8.8,1.6H207V130.8z M219.2,148.6c2.2,0,3.8-0.5,5-1.6c1.2-1.2,1.8-2.8,1.7-4.4
			c0.1-1.5-0.5-3-1.6-4.1c-1-1-2.6-1.6-4.7-1.6h-4.2v11.7H219.2z"/>
		<path class="st0" d="M255.1,154.6c-1.8-0.4-3.4-1.1-5-2.1v-5.7c1.4,1,2.9,1.7,4.5,2.1c1.8,0.5,3.6,0.8,5.4,0.8
			c0.6,0,1.3-0.1,1.9-0.3c0.4-0.2,0.6-0.5,0.6-0.8c0-0.3-0.1-0.6-0.3-0.9c-0.4-0.3-0.8-0.5-1.3-0.6l-4.1-0.9c-2.3-0.5-4-1.3-5-2.3
			c-1-1-1.5-2.4-1.5-3.8c0-1.3,0.4-2.5,1.3-3.4c1-1.1,2.3-1.8,3.7-2.3c1.8-0.6,3.7-0.8,5.6-0.8c1.8,0,3.5,0.2,5.3,0.6
			c1.4,0.3,2.7,0.9,4,1.6v5.4c-1.2-0.7-2.4-1.2-3.7-1.5c-1.4-0.4-2.9-0.6-4.3-0.6c-2.1,0-3.2,0.4-3.2,1.1c0,0.3,0.2,0.6,0.5,0.8
			c0.6,0.2,1.2,0.4,1.8,0.5l3.4,0.6c2.2,0.4,3.9,1.1,5,2s1.6,2.4,1.6,4.3c0,2-1,3.9-2.7,4.9c-1.8,1.2-4.4,1.8-7.7,1.8
			C258.8,155.4,256.9,155.1,255.1,154.6z"/>
		<path class="st0" d="M279.2,153.9c-1.8-0.8-3.4-2.2-4.4-3.9c-1-1.7-1.5-3.6-1.5-5.5c0-1.9,0.5-3.9,1.5-5.5c1.1-1.7,2.7-3,4.5-3.8
			c2.2-1,4.7-1.4,7.1-1.4c3.4,0,6.2,0.7,8.5,2.2v6.3c-0.9-0.6-1.8-1-2.8-1.3c-1.1-0.3-2.3-0.5-3.4-0.5c-2.1,0-3.8,0.4-5,1.2
			c-1.7,0.9-2.3,3.1-1.3,4.7c0.3,0.5,0.8,1,1.3,1.3c1.2,0.8,2.8,1.2,5.1,1.2c1.1,0,2.3-0.2,3.4-0.5c1-0.3,2-0.7,2.8-1.2v6
			c-2.6,1.5-5.7,2.3-8.7,2.3C283.9,155.4,281.5,154.9,279.2,153.9z"/>
		<path class="st0" d="M303.5,153.9c-1.8-0.8-3.4-2.2-4.5-3.9c-1-1.7-1.6-3.6-1.6-5.6c0-1.9,0.5-3.9,1.6-5.5c1.1-1.7,2.7-3,4.5-3.8
			c4.5-1.8,9.5-1.8,14,0c1.8,0.8,3.4,2.1,4.5,3.8c1,1.6,1.6,3.6,1.5,5.5c0,2-0.5,3.9-1.5,5.6c-1.1,1.7-2.6,3.1-4.5,3.9
			C313,155.8,308,155.8,303.5,153.9L303.5,153.9z M313.9,147.9c0.9-0.9,1.3-2.1,1.2-3.3c0.1-1.2-0.4-2.4-1.2-3.3
			c-0.9-0.9-2.2-1.3-3.4-1.2c-1.3-0.1-2.5,0.4-3.4,1.2c-0.9,0.9-1.3,2-1.2,3.3c-0.1,1.2,0.4,2.4,1.2,3.3c0.9,0.9,2.2,1.3,3.4,1.2
			C311.7,149.2,313,148.7,313.9,147.9z"/>
		<path class="st0" d="M344,135.1v7.4c-1-0.6-2.2-0.9-3.4-0.9c-1.8,0-3.2,0.6-4.2,1.7s-1.5,2.8-1.5,5.1v6.3h-8.4v-20h8.2v6.3
			c0.5-2.3,1.2-4,2.2-5.1c1-1.1,2.4-1.7,3.9-1.7C342,134.2,343.1,134.5,344,135.1z"/>
		<path class="st0" d="M371.8,130.1v24.6h-8.4v-4.5c-0.6,1.6-1.8,2.9-3.2,3.8c-1.6,0.9-3.5,1.4-5.3,1.3c-1.8,0-3.5-0.4-5-1.4
			c-1.4-0.9-2.6-2.2-3.3-3.8c-0.8-1.7-1.2-3.6-1.1-5.4c-0.1-1.9,0.4-3.9,1.2-5.6c0.8-1.6,2-3,3.5-3.9c1.6-0.9,3.4-1.4,5.2-1.4
			c4,0,6.7,1.7,8,5.2v-8.9H371.8z M362.2,147.8c0.9-0.8,1.3-2,1.3-3.2c0-1.2-0.4-2.3-1.3-3.1c-2-1.6-4.8-1.6-6.8,0
			c-0.9,0.8-1.3,2-1.3,3.2c0,1.2,0.4,2.4,1.3,3.2c0.9,0.8,2.1,1.3,3.3,1.2C360.1,149,361.3,148.6,362.2,147.8z"/>
		<path class="st0" d="M176.2,124.9c-4.1-1.9-8.4-3.2-12.8-3.9c-0.6,1.1-1.2,2.2-1.6,3.3c-4.7-0.7-9.5-0.7-14.2,0
			c-0.5-1.1-1-2.3-1.6-3.3c-4.4,0.8-8.7,2.1-12.8,3.9c-8.1,12-10.3,23.7-9.2,35.2l0,0c4.7,3.5,10.1,6.2,15.7,7.9
			c1.3-1.7,2.4-3.5,3.4-5.4c-1.8-0.7-3.6-1.5-5.3-2.5c0.4-0.3,0.9-0.7,1.3-1c9.9,4.7,21.4,4.7,31.4,0c0.4,0.3,0.9,0.7,1.3,1
			c-1.7,1-3.5,1.8-5.3,2.5c1,1.9,2.1,3.7,3.4,5.4c5.6-1.7,11-4.4,15.7-7.9l0,0C186.7,146.7,183.2,135.1,176.2,124.9z M144.4,153
			c-3.1,0-5.6-2.8-5.6-6.2c0-3.4,2.4-6.2,5.6-6.2c3.1,0,5.6,2.8,5.6,6.2C149.9,150.2,147.5,153,144.4,153z M165,153
			c-3.1,0-5.6-2.8-5.6-6.2c0-3.4,2.4-6.2,5.6-6.2s5.6,2.8,5.6,6.2C170.5,150.2,168.1,153,165,153z"/>
		<ellipse class="st0" cx="242.2" cy="133.1" rx="4.2" ry="3.7"/>
		<path class="st0" d="M238,139.4c2.7,1.1,5.7,1.1,8.3,0v15.4H238V139.4z"/>
	</g>
</g>
</svg>
